<?xml version="1.0" standalone="no"?>
<!DOCTYPE svg PUBLIC "-//W3C//DTD SVG 20010904//EN"
 "http://www.w3.org/TR/2001/REC-SVG-20010904/DTD/svg10.dtd">
<svg version="1.0" xmlns="http://www.w3.org/2000/svg"
 width="700.000000pt" height="700.000000pt" viewBox="0 0 700.000000 700.000000"
 preserveAspectRatio="xMidYMid meet">
<metadata>
Created by potrace 1.11, written by Peter Selinger 2001-2013
</metadata>
<g transform="translate(0.000000,700.000000) scale(0.100000,-0.100000)"
fill="#000000" stroke="none">
<path d="M660 5284 c0 -5 5 -26 11 -48 6 -21 12 -46 14 -55 8 -42 166 -722
211 -911 20 -81 23 -94 29 -122 3 -13 21 -90 40 -173 120 -516 166 -712 170
-730 22 -103 60 -258 73 -303 l17 -54 86 65 c48 36 95 72 105 81 23 19 360
282 401 314 16 12 43 33 59 46 16 14 154 124 307 246 248 197 295 240 270 240
-5 0 -21 13 -38 28 -16 15 -104 86 -195 157 -139 109 -386 305 -440 348 -8 7
-47 37 -85 67 -38 30 -79 62 -90 72 -11 9 -81 64 -155 122 -137 108 -242 191
-270 213 -31 25 -368 289 -400 313 -19 14 -45 34 -59 45 -55 44 -61 47 -61 39z"/>
<path d="M6301 5252 c-19 -15 -195 -152 -390 -305 -196 -153 -369 -288 -386
-301 -75 -60 -684 -541 -715 -566 -19 -15 -64 -51 -100 -79 -36 -28 -83 -66
-104 -84 -21 -18 -44 -35 -50 -39 -6 -4 -8 -9 -6 -11 9 -8 195 -161 236 -193
389 -312 821 -653 928 -733 51 -37 72 -48 77 -39 7 12 60 225 74 298 4 19 11
49 16 65 5 17 25 102 44 190 20 88 42 185 50 215 8 30 17 66 19 80 5 21 25
111 41 180 2 8 8 35 14 60 7 25 14 54 16 65 3 11 34 146 70 300 36 154 72 309
81 345 8 36 19 83 25 105 5 22 11 49 14 60 2 11 16 72 30 135 14 63 28 122 30
130 1 8 8 35 15 60 27 101 25 105 -29 62z"/>
<path d="M2670 3767 c-128 -100 -267 -209 -309 -241 -42 -33 -85 -68 -95 -78
-11 -10 -35 -28 -53 -41 -18 -12 -35 -28 -38 -36 -4 -11 358 -563 654 -996 45
-66 130 -190 187 -275 267 -394 411 -603 460 -667 l32 -43 53 77 c30 43 61 87
69 99 8 12 44 64 79 116 488 710 1131 1668 1131 1683 0 5 -44 45 -98 87 -275
217 -523 413 -572 452 l-55 44 -607 0 -607 1 -231 -182z"/>
<path d="M1794 3072 c-174 -136 -731 -574 -774 -609 -27 -21 -105 -83 -115
-91 -20 -14 -150 -117 -170 -134 -11 -9 -55 -44 -99 -78 -49 -39 -75 -65 -69
-71 6 -6 79 -28 164 -50 85 -22 248 -65 364 -95 116 -31 287 -76 380 -100 94
-23 197 -50 230 -59 33 -9 121 -32 195 -51 196 -51 349 -91 479 -125 63 -17
121 -32 130 -34 9 -2 70 -18 136 -35 238 -64 580 -150 592 -150 15 0 -89 156
-838 1253 -52 76 -101 148 -109 160 -147 217 -292 427 -293 427 -1 0 -93 -71
-203 -158z"/>
<path d="M4993 3183 c-34 -43 -230 -322 -348 -494 -28 -41 -77 -112 -110 -159
-102 -147 -139 -201 -250 -365 -60 -88 -145 -214 -190 -280 -267 -393 -313
-462 -323 -482 -13 -24 -53 -33 618 142 162 43 394 103 515 135 121 32 292 76
380 99 405 106 468 123 483 126 10 2 44 11 77 20 61 16 158 42 440 115 88 23
163 44 168 47 6 3 -19 28 -68 66 -5 4 -57 45 -115 90 -58 46 -224 177 -370
292 -146 115 -353 279 -461 364 -300 237 -400 316 -409 319 -4 2 -21 -14 -37
-35z"/>
</g>
</svg>
